{"title":"Pawel Pawlikowski - Ida (2013)","uid":10240169,"size":834487231,"categoryP":"video","categoryS":"movies","magnet":"?xt=urn:btih:4da51325f3d9cfa05fa0bf9fc4b8d9f61ff7cbf0&amp;dn=Pawel+Pawlikowski+-+Ida+%282013%29&amp;tr=udp%3A%2F%2Ftracker.openbittorrent.com%3A80&amp;tr=udp%3A%2F%2Fopen.demonii.com%3A1337&amp;tr=udp%3A%2F%2Ftracker.coppersurfer.tk%3A6969&amp;tr=udp%3A%2F%2Fexodus.desync.com%3A6969","seeders":19,"leechers":1,"uploader":"moonflux","files":1,"time":1401237751,"description":"Directed by Pawel Pawlikowski (My Summer of Love), this story of faith and despair is gracefully told, its simple, uncluttered spaces and luminous black-and-white photography harking back to Robert Bresson. Innocent young Ida (Agata Trzebuchowska), raised in a Polish convent and preparing to take her vows, is persuaded by the Mother Superior to make contact with her only known relative, an aunt (Agata Kulesza) who reveals to the young novitiate that her father was Jewish and her parents both died in the Nazi occupation. Hoping to uncover the details, the two women set off for the family's hometown, where the romantic attentions of a handsome young sax player in the hotel bar prove almost as troubling to Ida as her parents' demise.\n\n\nComplete name                    : Ida.2013.PL.mkv\nFormat                           : Matroska\nFormat version                   : Version 2\nFile size                        : 796 MiB\nDuration                         : 1h 18mn\nOverall bit rate                 : 1 416 Kbps\nWriting application              : HandBrake 0.9.9\nWriting library                  : libmkv 0.6.5\n\nVideo\nID                               : 1\nFormat                           : AVC\nFormat/Info                      : Advanced Video Codec\nFormat profile                   : &lt;a class=&quot;__cf_email__&quot; href=&quot;/cdn-cgi/l/email-protection&quot; data-cfemail=&quot;83cbeae4ebc3cfb0adb3&quot;&gt;[email&amp;#160;protected]&lt;/a&gt;&lt;script data-cfhash='f9e31' type=&quot;text/javascript&quot;&gt;\n/* &lt;![CDATA[ */!function(){try{var t=&quot;currentScript&quot;in document?document.currentScript:function(){for(var t=document.getElementsByTagName(&quot;script&quot;),e=t.length;e--;)if(t[e].getAttribute(&quot;data-cfhash&quot;))return t[e]}();if(t&amp;&amp;t.previousSibling){var e,r,n,i,c=t.previousSibling,a=c.getAttribute(&quot;data-cfemail&quot;);if(a){for(e=&quot;&quot;,r=parseInt(a.substr(0,2),16),n=2;a.length-n;n+=2)i=parseInt(a.substr(n,2),16)^r,e+=String.fromCharCode(i);e=document.createTextNode(e),c.parentNode.replaceChild(e,c)}t.parentNode.removeChild(t);}}catch(u){}}()/* ]]&gt; */&lt;/script&gt;\nFormat settings, CABAC           : Yes\nFormat settings, ReFrames        : 4 frames\nCodec ID                         : V_MPEG4/ISO/AVC\nDuration                         : 1h 18mn\nBit rate                         : 940 Kbps\nWidth                            : 720 pixels\nHeight                           : 576 pixels\nDisplay aspect ratio             : 4:3\nFrame rate                       : 25.000 fps\nStandard                         : PAL\nColor space                      : YUV\nChroma subsampling               : 4:2:0\nBit depth                        : 8 bits\nScan type                        : Progressive\nBits/(Pixel*Frame)               : 0.091\nStream size                      : 528 MiB (66%)\nWriting library                  : x264 core 130 r2273 b3065e6\nEncoding settings                : cabac=1 / ref=3 / deblock=1:-2:-2 / analyse=0x3:0x133 / me=umh / subme=9 / psy=1 / psy_rd=1.00:0.00 / mixed_ref=1 / me_range=24 / chroma_me=1 / trellis=2 / 8x8dct=1 / cqm=0 / deadzone=21,11 / fast_pskip=0 / chroma_qp_offset=-2 / threads=6 / lookahead_threads=1 / sliced_threads=0 / nr=0 / decimate=1 / interlaced=0 / bluray_compat=0 / constrained_intra=0 / bframes=6 / b_pyramid=2 / b_adapt=2 / b_bias=0 / direct=3 / weightb=1 / open_gop=0 / weightp=2 / keyint=250 / keyint_min=25 / scenecut=40 / intra_refresh=0 / rc_lookahead=50 / rc=crf / mbtree=1 / crf=19.0 / qcomp=0.60 / qpmin=0 / qpmax=69 / qpstep=4 / ip_ratio=1.40 / aq=1:1.20\nLanguage                         : English\nColor primaries                  : BT.470-6 System B, BT.470-6 System G, BT.601-6 625, BT.1358 625, BT.1700 625 PAL, BT.1700 625 SECAM\nTransfer characteristics         : BT.709-5, BT.1361\nMatrix coefficients              : BT.601-6 525, BT.1358 525, BT.1700 NTSC, SMPTE 170M\n\nAudio\nID                               : 2\nFormat                           : AC-3\nFormat/Info                      : Audio Coding 3\nMode extension                   : CM (complete main)\nCodec ID                         : A_AC3\nDuration                         : 1h 18mn\nBit rate mode                    : Constant\nBit rate                         : 448 Kbps\nChannel(s)                       : 6 channels\nChannel positions                : Front: L C R, Side: L R, LFE\nSampling rate                    : 48.0 KHz\nBit depth                        : 16 bits\nCompression mode                 : Lossy\nStream size                      : 252 MiB (32%)\nLanguage                         : Polish\n\nText\nID                               : 3\nFormat                           : VobSub\nCodec ID                         : S_VOBSUB\nCodec ID/Info                    : The same subtitle format used on DVDs\nLanguage                         : English\n\nMenu\n00:00:00.000                     : Chapter 1\n00:09:44.200                     : Chapter 2\n00:19:44.120                     : Chapter 3\n00:29:10.280                     : Chapter 4\n00:38:03.320                     : Chapter 5\n00:47:13.600                     : Chapter 6\n00:59:23.640                     : Chapter 7\n01:13:24.040                     : Chapter 8","torrent":{"xt":"urn:btih:4da51325f3d9cfa05fa0bf9fc4b8d9f61ff7cbf0","amp;dn":"Pawel+Pawlikowski+-+Ida+%282013%29","amp;tr":["udp%3A%2F%2Ftracker.openbittorrent.com%3A80","udp%3A%2F%2Fopen.demonii.com%3A1337","udp%3A%2F%2Ftracker.coppersurfer.tk%3A6969","udp%3A%2F%2Fexodus.desync.com%3A6969"],"infoHash":"4da51325f3d9cfa05fa0bf9fc4b8d9f61ff7cbf0","infoHashBuffer":{"type":"Buffer","data":[77,165,19,37,243,217,207,160,95,160,191,159,196,184,217,246,31,247,203,240]},"announce":[],"urlList":[]}}